# xmcd
#
# Track frame offsets:
#	150
#	19249
#	32477
#	45762
#	59131
#	73578
#	89976
#	107841
#	123708
#	139271
#	161856
#	176041
#	195279
#
# Disc length: 2829 seconds
# Revision: 0
# Processed by: cddbd v1.5.2PL0 Copyright (c) Steve Scherf et al.
# Submitted via: dBpowerAMP V12.0
#
DISCID=bf0b0b0d
DTITLE=Young Valley - Young Valley
DYEAR=2014
DGENRE=Americana
TTITLE0=The Way it Has to Be
TTITLE1=A Gentleman by the Name of ...
TTITLE2=The Letter
TTITLE3=Heartbreaker Like You
TTITLE4=If You Stayed
TTITLE5=The Fly
TTITLE6=Planted
TTITLE7=Out Tonight
TTITLE8=Center Line
TTITLE9=LLC
TTITLE10=Heavyfooted
TTITLE11=Runnin' Home
TTITLE12=Where Are You Lover?
EXTD=
EXTT0=
EXTT1=
EXTT2=
EXTT3=
EXTT4=
EXTT5=
EXTT6=
EXTT7=
EXTT8=
EXTT9=
EXTT10=
EXTT11=
EXTT12=
PLAYORDER=
